{"title":"Focus (2015) CAMRip [RUS]","uid":11734099,"size":750491648,"categoryP":"video","categoryS":"movies","magnet":"?xt=urn:btih:04610268fa04c243872ebb2220e65dea7d6ce353&amp;dn=Focus+%282015%29+CAMRip+%5BRUS%5D&amp;tr=udp%3A%2F%2Ftracker.openbittorrent.com%3A80&amp;tr=udp%3A%2F%2Fopen.demonii.com%3A1337&amp;tr=udp%3A%2F%2Ftracker.coppersurfer.tk%3A6969&amp;tr=udp%3A%2F%2Fexodus.desync.com%3A6969","seeders":6,"leechers":0,"uploader":"yfjfrj","files":1,"time":1425492955,"description":"Focus (2015) CAMRip [RUS]\n\nMediaInfo:\nGeneral\nFormat                                   : AVI\nFormat/Info                              : Audio Video Interleave\nFile size                                : 716 MiB\nDuration                                 : 1h 40mn\nOverall bit rate                         : 999 Kbps\nMovie name                               : Fokus.2015.D.CAMRip.700MB.ELEKTRI4KA.uniongang.tv\nDirector                                 : KiNOPark&amp;3imeMachi9e&amp;kolbas\nWriting application                      : VirtualDubMod 1.5.10.3 | www.virtualdub-fr.org || (build 2550/release)\n\nVideo\nID                                       : 0\nFormat                                   : MPEG-4 Visual\nFormat profile                           : Advanced Simple@L5\nFormat settings, BVOP                    : 3\nFormat settings, QPel                    : No\nFormat settings, GMC                     : No warppoints\nFormat settings, Matrix                  : Default (H.263)\nCodec ID                                 : XVID\nCodec ID/Hint                            : XviD\nDuration                                 : 1h 40mn\nBit rate                                 : 860 Kbps\nWidth                                    : 640 pixels\nHeight                                   : 320 pixels\nDisplay aspect ratio                     : 2.000\nFrame rate                               : 29.970 fps\nColor space                              : YUV\nChroma subsampling                       : 4:2:0\nBit depth                                : 8 bits\nScan type                                : Progressive\nCompression mode                         : Lossy\nBits/(Pixel*Frame)                       : 0.140\nStream size                              : 616 MiB (86%)\nWriting library                          : XviD 1.2.1 (UTC 2008-12-04)\n\nAudio\nID                                       : 1\nFormat                                   : MPEG Audio\nFormat version                           : Version 1\nFormat profile                           : Layer 3\nMode                                     : Joint stereo\nMode extension                           : MS Stereo\nCodec ID                                 : 55\nCodec ID/Hint                            : MP3\nDuration                                 : 1h 40mn\nBit rate mode                            : Constant\nBit rate                                 : 128 Kbps\nChannel(s)                               : 2 channels\nSampling rate                            : 48.0 KHz\nCompression mode                         : Lossy\nStream size                              : 91.7 MiB (13%)\nAlignment                                : Aligned on interleaves\nInterleave, duration                     : 33 ms (1.00 video frame)\nInterleave, preload duration             : 504 ms\n\n\n\nScreens: &lt;a href=&quot;\nhttp://i6.imageban.ru/out/2015/03/04/ed611e470ff51da034bb137095e9dddc.png&quot; rel=&quot;nofollow&quot; target=&quot;_NEW&quot;&gt;\nhttp://i6.imageban.ru/out/2015/03/04/ed611e470ff51da034bb137095e9dddc.png&lt;/a&gt; &lt;a href=&quot;\nhttp://i6.imageban.ru/out/2015/03/04/6fb5db93c479aff9861d5b11c36534da.png&quot; rel=&quot;nofollow&quot; target=&quot;_NEW&quot;&gt;\nhttp://i6.imageban.ru/out/2015/03/04/6fb5db93c479aff9861d5b11c36534da.png&lt;/a&gt; &lt;a href=&quot;\nhttp://i2.imageban.ru/out/2015/03/04/191604549e08100eaaced5352e0c4faf.png&quot; rel=&quot;nofollow&quot; target=&quot;_NEW&quot;&gt;\nhttp://i2.imageban.ru/out/2015/03/04/191604549e08100eaaced5352e0c4faf.png&lt;/a&gt; &lt;a href=&quot;\nhttp://i1.imageban.ru/out/2015/03/04/b08e765cb0fb3a26a1157c359a918932.png&quot; rel=&quot;nofollow&quot; target=&quot;_NEW&quot;&gt;\nhttp://i1.imageban.ru/out/2015/03/04/b08e765cb0fb3a26a1157c359a918932.png&lt;/a&gt;","torrent":{"xt":"urn:btih:04610268fa04c243872ebb2220e65dea7d6ce353","amp;dn":"Focus+%282015%29+CAMRip+%5BRUS%5D","amp;tr":["udp%3A%2F%2Ftracker.openbittorrent.com%3A80","udp%3A%2F%2Fopen.demonii.com%3A1337","udp%3A%2F%2Ftracker.coppersurfer.tk%3A6969","udp%3A%2F%2Fexodus.desync.com%3A6969"],"infoHash":"04610268fa04c243872ebb2220e65dea7d6ce353","infoHashBuffer":{"type":"Buffer","data":[4,97,2,104,250,4,194,67,135,46,187,34,32,230,93,234,125,108,227,83]},"announce":[],"urlList":[]}}